<svg width="131" height="131" viewBox="0 0 131 131" fill="none" xmlns="http://www.w3.org/2000/svg">
<path d="M122.812 24.5625H119.181C117.032 24.5625 114.969 25.4099 113.434 26.9205L102.344 37.859V32.75C102.344 25.9667 96.8418 20.4688 90.0625 20.4688H12.2812C5.51019 20.4688 0 25.9748 0 32.75V61.2916V98.25C0 105.029 5.49791 110.531 12.2812 110.531H90.0625C96.8418 110.531 102.344 105.029 102.344 98.25V93.2515L113.434 104.19C114.969 105.701 117.032 106.548 119.181 106.548H122.812C127.332 106.548 131 102.884 131 98.3605V32.75C131 28.2264 127.332 24.5625 122.812 24.5625ZM12.2812 102.344C10.0215 102.344 8.1875 100.506 8.1875 98.25V32.75C8.1875 30.4862 10.0174 28.6562 12.2812 28.6562H90.0625C92.3182 28.6562 94.1562 30.4902 94.1562 32.75V98.25C94.1562 100.506 92.3182 102.344 90.0625 102.344H12.2812ZM122.812 98.3605H119.181H118.719L102.344 81.9855V81.875L98.25 77.7812V53.2188L118.719 32.75H119.181H122.812V98.3605Z" fill="white"/>
</svg>
