<svg width="25" height="24" viewBox="0 0 25 24" fill="none" xmlns="http://www.w3.org/2000/svg">
<path fill-rule="evenodd" clip-rule="evenodd" d="M21.9456 0C23.6314 0 25 1.28035 25 2.85734V20.5298C25 22.1067 23.6313 23.3871 21.9456 23.3871H16.747V14.5751H19.9989L20.6177 10.8012H16.747V8.35207C16.747 7.31961 17.2876 6.31319 19.0214 6.31319H20.7812V3.10021C20.7812 3.10021 19.1841 2.84523 17.6571 2.84523C14.4692 2.84523 12.3856 4.65266 12.3856 7.9248V10.8012H8.84204V14.5751H12.3856V23.3871H3.05439C1.36865 23.3871 0 22.1067 0 20.5298V2.85734C0 1.28035 1.3686 0 3.05439 0L21.9456 0Z" fill="white"/>
</svg>
