<svg width="40" height="41" viewBox="0 0 40 41" fill="none" xmlns="http://www.w3.org/2000/svg">
<path fill-rule="evenodd" clip-rule="evenodd" d="M39.3583 5.16484L19.9722 9.68404L0.641739 5.16484L19.8931 0.645647L39.3583 5.16484Z" fill="#092E3D"/>
<path fill-rule="evenodd" clip-rule="evenodd" d="M31.9692 6.88045L19.8934 9.68406L7.97601 6.88646L19.8934 4.08887L31.9692 6.88045Z" fill="#4AB449"/>
<path fill-rule="evenodd" clip-rule="evenodd" d="M19.8931 9.6841L39.3583 5.1649V35.2929L19.8931 39.8121L0.641739 35.2929V5.1649L19.8931 9.6841Z" fill="#092E3D"/>
<path fill-rule="evenodd" clip-rule="evenodd" d="M19.8931 16.134L39.3583 11.6148V15.058L19.8931 19.5772L0.641739 15.058V11.6148L19.8931 16.134Z" fill="#F2AF0D"/>
<path fill-rule="evenodd" clip-rule="evenodd" d="M4.91981 17.7897L0.641739 16.7856V18.9376L4.91981 19.9417V17.7897Z" fill="#F2AF0D"/>
<path fill-rule="evenodd" clip-rule="evenodd" d="M35.0804 17.7897L39.3584 16.7856V18.9376L35.0804 19.9417V17.7897Z" fill="#F2AF0D"/>
<path fill-rule="evenodd" clip-rule="evenodd" d="M12.4064 19.5475L8.12835 18.543V20.695L12.4064 21.6995V19.5475Z" fill="#F2AF0D"/>
<path fill-rule="evenodd" clip-rule="evenodd" d="M27.5935 19.5475L31.8716 18.543V20.695L27.5935 21.6995V19.5475Z" fill="#F2AF0D"/>
<path fill-rule="evenodd" clip-rule="evenodd" d="M19.893 21.3048L24.385 20.3006V22.4526L19.893 23.4568L15.615 22.4526V20.3006L19.893 21.3048Z" fill="#F2AF0D"/>
<path fill-rule="evenodd" clip-rule="evenodd" d="M0.495829 4.53603C0.269947 4.62039 0 4.90273 0 5.16484V35.2928C0 35.5928 0.205348 35.8532 0.495829 35.9216L19.7472 40.4408C19.8486 40.4645 19.9499 40.4628 20.0445 40.4395L39.5025 35.922C39.7938 35.8545 40 35.5932 40 35.2928V5.16484C40 4.96772 39.8841 4.59284 39.5037 4.53603L20.0372 0.0164144C19.9418 -0.005536 19.8426 -0.00554608 19.7472 0.0168347L0.495829 4.53603ZM38.7166 16.2735V15.8715L20.0462 20.2542C19.9508 20.2779 19.8481 20.2801 19.7459 20.2555L1.28342 15.8736V16.2735L5.06567 17.1614C5.35615 17.2294 5.5615 17.4898 5.5615 17.7898V19.9418C5.5615 20.1389 5.47208 20.3252 5.3185 20.4475C5.16535 20.5701 4.9647 20.6153 4.7739 20.5706L1.28342 19.7511V34.7806L19.8939 39.1492L38.7166 34.7794V19.7511L35.2261 20.5706C35.0353 20.6153 34.8346 20.5701 34.6815 20.4475C34.5279 20.3252 34.4385 20.1389 34.4385 19.9418V17.7898C34.4385 17.4898 34.6438 17.2294 34.9343 17.1614L38.7166 16.2735ZM20.0406 24.0852L24.5241 23.0828C24.818 23.0169 25.0267 22.7553 25.0267 22.4527V20.3007C25.0267 20.1049 24.9382 19.9194 24.7867 19.7971C24.6349 19.6745 24.4359 19.628 24.246 19.6702L19.8965 20.6429L15.7609 19.6719C15.5701 19.6271 15.3694 19.6723 15.2163 19.795C15.0627 19.9172 14.9733 20.1036 14.9733 20.3007V22.4527C14.9733 22.7527 15.1786 23.0131 15.4691 23.0811L19.7472 24.0856C19.8473 24.1089 19.947 24.1076 20.0406 24.0852ZM20.0406 21.9332C19.947 21.9556 19.8473 21.9569 19.7472 21.9336L16.2567 21.1142V21.9401L19.8965 22.7949L23.7433 21.9345V21.1055L20.0406 21.9332ZM27.4477 18.9187C27.1572 18.9867 26.9519 19.2475 26.9519 19.5475V21.6995C26.9519 21.8962 27.0413 22.0826 27.1949 22.2052C27.348 22.3274 27.5487 22.3727 27.7395 22.3279L32.0175 21.3238C32.308 21.2558 32.5134 20.9949 32.5134 20.695V18.543C32.5134 18.3463 32.424 18.1599 32.2704 18.0372C32.1172 17.915 31.9166 17.8698 31.7258 17.9146L27.4477 18.9187ZM13.0481 19.5475C13.0481 19.2475 12.8428 18.9867 12.5523 18.9187L8.27423 17.9146C8.08342 17.8698 7.88278 17.915 7.72963 18.0372C7.57604 18.1599 7.48663 18.3463 7.48663 18.543V20.695C7.48663 20.9949 7.69198 21.2558 7.98246 21.3238L12.2605 22.3279C12.4513 22.3727 12.652 22.3274 12.8051 22.2052C12.9587 22.0826 13.0481 21.8962 13.0481 21.6995V19.5475ZM28.2353 20.0597L31.2299 19.3568V20.1828L28.2353 20.8856V20.0597ZM11.7647 20.0597V20.8856L8.77005 20.1828V19.3568L11.7647 20.0597ZM38.7166 17.5991V18.4255L35.7219 19.1283V18.3024L38.7166 17.5991ZM1.28342 18.4255V17.5991L4.27807 18.3024V19.1283L1.28342 18.4255ZM20.0462 16.811C19.9508 16.8347 19.8481 16.8369 19.7459 16.8123L1.28342 12.4304V14.5467L19.8939 18.9643L38.7166 14.5454V12.4283L20.0462 16.811ZM38.7166 11.1022V5.9783L20.0389 10.3628C19.9363 10.3869 19.834 10.3847 19.7382 10.3606L1.28342 5.98046V11.1035L19.8939 15.5211L38.7166 11.1022ZM10.7444 6.89937L19.8939 9.07115L29.1452 6.89937L19.8939 4.75165L10.7444 6.89937ZM3.45112 5.16828L7.93583 6.23267L19.7472 3.46003C19.8426 3.43765 19.9418 3.43766 20.0372 3.45961L31.9833 6.23309L36.5194 5.16828L19.8939 1.30845L3.45112 5.16828Z" fill="#092E3D"/>
</svg>
