<svg width="40" height="40" viewBox="0 0 40 40" fill="none" xmlns="http://www.w3.org/2000/svg">
<path d="M6.25 15H8.75V12.5H6.25V15ZM16.25 12.5H18.75V10H16.25V12.5ZM21.25 12.5H23.75V10H21.25V12.5ZM26.25 12.5H28.75V10H26.25V12.5ZM16.25 7.5H18.75V5H16.25V7.5ZM21.25 7.5H23.75V5H21.25V7.5ZM26.25 7.5H28.75V5H26.25V7.5ZM16.25 22.5H18.75V20H16.25V22.5ZM21.25 22.5H23.75V20H21.25V22.5ZM26.25 22.5H28.75V20H26.25V22.5ZM16.25 27.5H18.75V25H16.25V27.5ZM26.25 27.5H28.75V25H26.25V27.5ZM16.25 32.5H18.75V30H16.25V32.5ZM26.25 32.5H28.75V30H26.25V32.5ZM33.75 30H36.25V27.5H33.75V30ZM33.75 22.5V25H36.25V22.5H33.75ZM33.75 35H36.25V32.5H33.75V35ZM16.25 17.5H18.75V15H16.25V17.5ZM21.25 17.5H23.75V15H21.25V17.5ZM26.25 17.5H28.75V15H26.25V17.5ZM6.25 20H8.75V17.5H6.25V20ZM6.25 25H8.75V22.5H6.25V25ZM6.25 30H8.75V27.5H6.25V30ZM6.25 35H8.75V32.5H6.25V35ZM21.25 27.5H23.75V25H21.25V27.5Z" fill="#4AB449" fill-opacity="0.5"/>
<path fill-rule="evenodd" clip-rule="evenodd" d="M38.75 37.5C38.75 38.8819 37.6319 40 36.25 40H3.75C2.36812 40 1.25 38.8819 1.25 37.5V10C1.25 8.61812 2.36812 7.5 3.75 7.5H11.25V2.5C11.25 1.11812 12.3681 0 13.75 0H31.25C32.6319 0 33.75 1.11812 33.75 2.5V17.5H36.25C37.6319 17.5 38.75 18.6181 38.75 20V37.5ZM11.25 10H3.75V37.5H11.25V10ZM31.25 2.5H13.75V37.5H21.25V30H23.75V37.5H31.25V2.5ZM36.25 20H33.75V37.5H36.25V20Z" fill="#4AB449" fill-opacity="0.5"/>
</svg>
