<svg width="25" height="25" viewBox="0 0 25 25" fill="none" xmlns="http://www.w3.org/2000/svg">
<g clip-path="url(#clip0_1_331)">
<path fill-rule="evenodd" clip-rule="evenodd" d="M21.9456 0C23.6314 0 25 1.36865 25 3.05439V21.9456C25 23.6313 23.6313 25 21.9456 25H3.05439C1.36865 25 0 23.6313 0 21.9456V3.05439C0 1.36865 1.3686 0 3.05439 0L21.9456 0ZM12.5 3.95508C10.1793 3.95508 9.88833 3.96489 8.97695 4.00649C8.06743 4.048 7.44629 4.19243 6.90273 4.40371C6.34082 4.62207 5.86431 4.91426 5.38926 5.38926C4.91421 5.86431 4.62202 6.34087 4.40366 6.90273C4.19243 7.44629 4.048 8.06743 4.00645 8.97695C3.96489 9.88833 3.95508 10.1793 3.95508 12.5C3.95508 14.8207 3.96489 15.1117 4.00645 16.023C4.048 16.9326 4.19243 17.5537 4.40366 18.0973C4.62202 18.6591 4.91421 19.1357 5.38926 19.6107C5.86431 20.0858 6.34082 20.378 6.90273 20.5963C7.44629 20.8076 8.06743 20.952 8.97695 20.9935C9.88833 21.0351 10.1793 21.0449 12.5 21.0449C14.8207 21.0449 15.1117 21.0351 16.023 20.9935C16.9326 20.952 17.5537 20.8076 18.0973 20.5963C18.6591 20.378 19.1357 20.0858 19.6107 19.6107C20.0858 19.1357 20.378 18.6591 20.5963 18.0973C20.8076 17.5537 20.952 16.9326 20.9935 16.023C21.0351 15.1117 21.0449 14.8207 21.0449 12.5C21.0449 10.1793 21.0351 9.88833 20.9935 8.97695C20.952 8.06743 20.8076 7.44629 20.5963 6.90273C20.378 6.34087 20.0858 5.86431 19.6107 5.38926C19.1357 4.91426 18.6591 4.62207 18.0973 4.40371C17.5537 4.19243 16.9326 4.048 16.023 4.00649C15.1117 3.96489 14.8207 3.95508 12.5 3.95508ZM12.5 5.49473C14.7816 5.49473 15.0519 5.50342 15.9529 5.54453C16.786 5.58257 17.2384 5.72178 17.5396 5.83872C17.9384 5.99375 18.223 6.17896 18.5221 6.47793C18.8211 6.77695 19.0063 7.06162 19.1613 7.46045C19.2783 7.76157 19.4175 8.21401 19.4555 9.04712C19.4966 9.94814 19.5053 10.2184 19.5053 12.5C19.5053 14.7816 19.4966 15.0519 19.4555 15.9529C19.4175 16.786 19.2783 17.2384 19.1613 17.5396C19.0063 17.9384 18.8211 18.223 18.5221 18.5221C18.223 18.8211 17.9384 19.0063 17.5396 19.1613C17.2384 19.2783 16.786 19.4175 15.9529 19.4555C15.052 19.4966 14.7817 19.5053 12.5 19.5053C10.2183 19.5053 9.94805 19.4966 9.04712 19.4555C8.21401 19.4175 7.76157 19.2783 7.46045 19.1613C7.06157 19.0063 6.77695 18.8211 6.47793 18.5221C6.17891 18.223 5.9937 17.9384 5.83872 17.5396C5.72173 17.2384 5.58252 16.786 5.54448 15.9529C5.50337 15.0519 5.49468 14.7816 5.49468 12.5C5.49468 10.2184 5.50337 9.94814 5.54448 9.04712C5.58252 8.21401 5.72173 7.76157 5.83872 7.46045C5.9937 7.06162 6.17891 6.77695 6.47793 6.47793C6.77695 6.17896 7.06157 5.99375 7.46045 5.83872C7.76157 5.72178 8.21401 5.58257 9.04712 5.54453C9.94814 5.50342 10.2184 5.49473 12.5 5.49473ZM12.5 8.11206C10.0766 8.11206 8.11206 10.0766 8.11206 12.5C8.11206 14.9234 10.0766 16.8879 12.5 16.8879C14.9234 16.8879 16.8879 14.9234 16.8879 12.5C16.8879 10.0766 14.9234 8.11206 12.5 8.11206ZM12.5 15.3483C10.9269 15.3483 9.65171 14.0731 9.65171 12.5C9.65171 10.9269 10.9269 9.65171 12.5 9.65171C14.0731 9.65171 15.3483 10.9269 15.3483 12.5C15.3483 14.0731 14.0731 15.3483 12.5 15.3483ZM18.0867 7.93872C18.0867 8.50503 17.6276 8.96406 17.0613 8.96406C16.495 8.96406 16.0359 8.50503 16.0359 7.93872C16.0359 7.37241 16.495 6.91333 17.0613 6.91333C17.6276 6.91333 18.0867 7.37241 18.0867 7.93872Z" fill="white"/>
</g>
<defs>
<clipPath id="clip0_1_331">
<rect width="25" height="25" fill="white"/>
</clipPath>
</defs>
</svg>
