<svg width="35" height="39" viewBox="0 0 35 39" fill="none" xmlns="http://www.w3.org/2000/svg">
<g filter="url(#filter0_dd_1_373)">
<path d="M20.2174 21.6683C20.2174 21.6683 22.3263 20.2966 22.8783 19.967C23.4289 19.6362 23.9992 19.5528 24.3455 19.793C24.87 20.1575 29.2741 23.4861 29.645 23.7808C30.0158 24.0761 30.1945 24.9193 29.6846 25.7454C29.1768 26.5714 26.8341 29.8379 25.8413 29.8029C24.8471 29.7663 20.7132 29.6633 12.9179 20.8043C5.12422 11.9483 5.03203 7.25042 5.00026 6.12078C4.96849 4.99174 7.84348 2.32948 8.57056 1.75194C9.29869 1.17499 10.0419 1.39216 10.3002 1.7981C10.594 2.26025 13.4898 7.24805 13.8086 7.81968C14.0268 8.21023 13.9466 8.86174 13.6554 9.4878C13.3659 10.1151 12.1586 12.511 12.1586 12.511C12.1586 12.511 13.0096 14.1602 15.8877 17.4296C18.7664 20.6996 20.2174 21.6683 20.2174 21.6683Z" stroke="#4AB449" stroke-width="2" stroke-miterlimit="10" shape-rendering="crispEdges"/>
</g>
<defs>
<filter id="filter0_dd_1_373" x="0" y="0.402039" width="35" height="38.4012" filterUnits="userSpaceOnUse" color-interpolation-filters="sRGB">
<feFlood flood-opacity="0" result="BackgroundImageFix"/>
<feColorMatrix in="SourceAlpha" type="matrix" values="0 0 0 0 0 0 0 0 0 0 0 0 0 0 0 0 0 0 127 0" result="hardAlpha"/>
<feOffset dy="4"/>
<feGaussianBlur stdDeviation="2"/>
<feComposite in2="hardAlpha" operator="out"/>
<feColorMatrix type="matrix" values="0 0 0 0 0 0 0 0 0 0 0 0 0 0 0 0 0 0 0.25 0"/>
<feBlend mode="normal" in2="BackgroundImageFix" result="effect1_dropShadow_1_373"/>
<feColorMatrix in="SourceAlpha" type="matrix" values="0 0 0 0 0 0 0 0 0 0 0 0 0 0 0 0 0 0 127 0" result="hardAlpha"/>
<feOffset dy="4"/>
<feGaussianBlur stdDeviation="2"/>
<feComposite in2="hardAlpha" operator="out"/>
<feColorMatrix type="matrix" values="0 0 0 0 0 0 0 0 0 0 0 0 0 0 0 0 0 0 0.25 0"/>
<feBlend mode="normal" in2="effect1_dropShadow_1_373" result="effect2_dropShadow_1_373"/>
<feBlend mode="normal" in="SourceGraphic" in2="effect2_dropShadow_1_373" result="shape"/>
</filter>
</defs>
</svg>
