<svg width="40" height="40" viewBox="0 0 40 40" fill="none" xmlns="http://www.w3.org/2000/svg">
<path d="M37.8722 2.02646C36.3992 0.575722 33.814 0.915286 32.3333 2.37308L24.8032 9.76068L10.8334 4.62846C9.49697 4.2867 8.1502 3.84672 6.49081 5.48464C5.64522 6.31703 3.88506 8.05185 6.49081 10.6195L16.0678 18.3321L9.83601 24.4469L4.02301 23.0178C3.15726 22.7989 2.57816 22.9693 2.1361 23.4494C1.91306 23.7242 0.293981 24.905 1.42129 26.0161L8.98862 30.3952L13.4432 37.837C14.2601 38.6408 15.0211 38.1391 16.0575 37.1698C16.715 36.521 16.5721 36.1881 16.3746 35.2429L15.0609 29.5655L21.2502 23.4608L29.0795 32.8788C31.687 35.4455 33.4468 33.712 34.2946 32.8788C35.9531 31.2422 35.5074 29.9152 35.1617 28.5988L29.9838 14.8392L37.4857 7.43834C38.9655 5.98011 39.3449 3.47677 37.8722 2.02646Z" fill="#E0F1F8"/>
<path d="M24.6686 9.76047L21.0005 8.73605L13.1752 16.0611L15.9328 18.3315L24.6686 9.76047Z" fill="#4AB449" fill-opacity="0.5"/>
<path d="M29.8495 14.8402L31.229 18.2799L23.4606 25.5526L21.1146 23.4606L29.8495 14.8402Z" fill="#4AB449" fill-opacity="0.5"/>
<path d="M14.3724 39.3321C13.7772 39.3321 13.229 39.089 12.7431 38.6112C12.6768 38.5455 12.619 38.472 12.5711 38.3923L8.26295 31.1945L0.943736 26.9594C0.862222 26.9123 0.786979 26.8555 0.720245 26.7894C0.119193 26.1966 -0.00307703 25.5743 5.81114e-05 25.1563C0.00856778 24.05 0.864461 23.2313 1.27606 22.8371C1.31637 22.7983 1.35086 22.7666 1.37549 22.7406C2.15211 21.8955 3.13833 21.6422 4.38657 21.9576L9.58239 23.2348L14.4978 18.4113L5.87218 11.4659C5.84351 11.4425 5.81575 11.4179 5.78977 11.3919C3.53918 9.17394 3.53918 6.9256 5.79022 4.71073C6.81227 3.70173 7.89793 3.2111 9.10764 3.2111C9.81619 3.2111 10.4629 3.37846 11.034 3.526L11.2006 3.56916C11.2377 3.57841 11.274 3.58986 11.3099 3.60307L24.61 8.48953L31.6341 1.59872C32.6508 0.59809 34.1135 0 35.5467 0C36.7887 0 37.9259 0.444824 38.7464 1.25343C40.7439 3.21947 40.1594 6.4385 38.3603 8.21119L31.3613 15.1156L36.292 28.219C36.305 28.2538 36.3166 28.289 36.3256 28.3256L36.3699 28.4912C36.7229 29.8208 37.2066 31.6406 35.1696 33.6512C34.5731 34.2378 33.469 35.3221 31.8311 35.3221C30.6667 35.3221 29.5053 34.7606 28.3789 33.652C28.3529 33.6265 28.3283 33.5996 28.3046 33.571L21.255 25.0916L16.3691 29.912L17.5967 35.2358C17.7848 36.1061 17.9626 36.9279 16.9325 37.9435C16.1702 38.6565 15.3645 39.3321 14.3724 39.3321ZM2.2269 25.1625L9.64017 29.4526C9.8032 29.5469 9.9389 29.6803 10.0347 29.8406L14.4002 37.134C14.5171 37.093 14.7836 36.9336 15.3784 36.3778C15.4935 36.2637 15.5226 36.2056 15.5235 36.2034C15.5212 36.1598 15.4653 35.8999 15.42 35.6912L15.3717 35.4652L14.0634 29.8098C13.9788 29.4434 14.0907 29.0602 14.3603 28.7942L20.5491 22.6887C20.7708 22.4693 21.0736 22.3517 21.392 22.368C21.706 22.383 21.9993 22.5284 22.1991 22.7684L29.9917 32.1423C30.6702 32.8003 31.2888 33.1337 31.8311 33.1337C32.5482 33.1337 33.1515 32.54 33.5922 32.1066C34.7316 30.9827 34.5377 30.2529 34.217 29.0444L34.1861 28.9272L29.027 15.2187C28.8765 14.8184 28.9759 14.3683 29.2823 14.0666L36.7842 6.66575C37.8045 5.66072 38.2138 3.82637 37.1712 2.79975C36.6584 2.29415 36.0045 2.18801 35.5467 2.18801C34.6913 2.18801 33.8166 2.54651 33.2075 3.14636L25.6764 10.5353C25.3683 10.8378 24.9092 10.9356 24.5012 10.7854L10.4678 5.6431C9.98459 5.51802 9.5282 5.39999 9.10764 5.39999C8.70097 5.39999 8.1353 5.49732 7.36585 6.25704C6.30617 7.29952 5.68362 8.16626 7.32733 9.80859L16.86 17.4855C17.1032 17.6811 17.251 17.9691 17.2662 18.2783C17.2819 18.587 17.1636 18.8883 16.941 19.1063L10.7093 25.2211C10.4329 25.4924 10.0321 25.6016 9.65316 25.5082L3.83971 24.0791C3.67624 24.0377 3.53963 24.0179 3.42632 24.0179C3.25478 24.0179 3.16655 24.0557 3.051 24.1804C2.9977 24.2398 2.92156 24.3169 2.82796 24.4063C2.35992 24.8542 2.24034 25.0643 2.2269 25.1625Z" fill="#4AB449" fill-opacity="0.5"/>
<path d="M21.2362 24.622C20.9513 24.622 20.6665 24.5155 20.4488 24.301C20.0148 23.8738 20.0148 23.181 20.4488 22.7538L29.285 14.0647C29.7194 13.6371 30.4244 13.6371 30.8588 14.0647C31.2942 14.4919 31.2942 15.1843 30.8588 15.6119L22.0222 24.301C21.8054 24.5155 21.5206 24.622 21.2362 24.622Z" fill="#4AB449" fill-opacity="0.5"/>
<path d="M15.9395 19.6577C15.6547 19.6577 15.3703 19.5512 15.1526 19.3376C14.7177 18.9099 14.7177 18.2171 15.1526 17.7899L24.1021 8.98725C24.537 8.55916 25.2415 8.5596 25.6759 8.98681C26.1113 9.41446 26.1113 10.1068 25.6764 10.5344L16.7269 19.3371C16.5092 19.5507 16.2244 19.6577 15.9395 19.6577Z" fill="#4AB449" fill-opacity="0.5"/>
</svg>
