<svg width="27" height="25" viewBox="0 0 27 25" fill="none" xmlns="http://www.w3.org/2000/svg">
<path d="M19.5498 14.8621C20.5752 13.3683 21.1768 11.5961 21.1768 9.69086C21.1768 4.36769 16.5215 0.0509186 10.7793 0.0509186C5.03027 0.0509186 0.375 4.36769 0.375 9.69086C0.375 15.014 5.03027 19.3308 10.7725 19.3308C12.8574 19.3308 14.7988 18.7611 16.4258 17.7864L16.8975 17.4826L24.3213 24.3565L26.625 22.1854L19.208 15.3115L19.5498 14.8621ZM16.6035 4.30439C18.1553 5.7412 19.0098 7.65273 19.0098 9.68453C19.0098 11.7163 18.1553 13.6279 16.6035 15.0647C15.0518 16.5015 12.9873 17.2927 10.793 17.2927C8.59863 17.2927 6.53418 16.5015 4.98242 15.0647C3.43066 13.6279 2.57617 11.7163 2.57617 9.68453C2.57617 7.65273 3.43066 5.7412 4.98242 4.30439C6.53418 2.86758 8.59863 2.07638 10.793 2.07638C12.9873 2.07638 15.0518 2.86758 16.6035 4.30439Z" fill="#092E3D" fill-opacity="0.5"/>
</svg>
