<svg width="35" height="42" viewBox="0 0 35 42" fill="none" xmlns="http://www.w3.org/2000/svg">
<path d="M23.0194 7.97535C25.2217 7.97535 27.007 6.19001 27.007 3.98768C27.007 1.78534 25.2217 0 23.0194 0C20.817 0 19.0317 1.78534 19.0317 3.98768C19.0317 6.19001 20.817 7.97535 23.0194 7.97535Z" fill="#4AB449" fill-opacity="0.5"/>
<path d="M32.2358 15.3257L26.3027 10.3697H20.2639L15.3608 16.7077L10.3872 17.2359L9.77096 17.3063L9.16357 17.3679L8.69702 17.4207L9.03153 19.3486L9.16357 19.375L9.77096 19.4894L10.3872 19.6038L16.8572 20.8186L20.5544 16.7781L19.991 24.1725L16.6812 41.6989H19.2076L23.8379 27.0422L28.4153 41.6989H30.7657L28.1248 24.3398L27.3854 16.6813L30.8537 18.7324L31.0738 24.3222L33.3801 24.3398L34.7005 18.8732L34.9998 17.632L32.2358 15.3257Z" fill="#4AB449" fill-opacity="0.5"/>
<path d="M9.00559 27.8433H3.59186V37.7465H9.00559V27.8433Z" fill="#4AB449" fill-opacity="0.5"/>
<path d="M10.6074 21.7693H10.3873V20.8538L9.15493 20.6249V21.7693H3.4331V13.3186H4.53345V13.5563C4.53345 13.9084 4.82394 14.1989 5.17606 14.1989H7.40317C7.75528 14.1989 8.04578 13.9084 8.04578 13.5563V13.3186H9.14613V16.1267L9.63028 16.0739L10.3785 15.9946V12.7024C10.3785 12.3591 10.1056 12.0862 9.76233 12.0862H8.04578V11.8485C8.04578 11.4876 7.75528 11.2059 7.40317 11.2059H5.17606C4.82394 11.2059 4.53345 11.4964 4.53345 11.8485V12.0862H2.8169C2.47359 12.0862 2.2007 12.3591 2.2007 12.7024V21.7693H1.98063C0.889084 21.7693 0 22.6584 0 23.7499V35.7658C0 36.8573 0.889084 37.7464 1.98063 37.7464H2.35915V27.227C2.35915 26.8837 2.63204 26.6108 2.97535 26.6108H9.62148C9.96479 26.6108 10.2377 26.8837 10.2377 27.227V37.7464H10.6162C11.7077 37.7464 12.5968 36.8573 12.5968 35.7658V23.7499C12.588 22.6584 11.6989 21.7693 10.6074 21.7693Z" fill="#4AB449" fill-opacity="0.5"/>
<path d="M2.97537 41.699C3.61225 41.699 4.12854 41.1827 4.12854 40.5458C4.12854 39.9089 3.61225 39.3926 2.97537 39.3926C2.3385 39.3926 1.8222 39.9089 1.8222 40.5458C1.8222 41.1827 2.3385 41.699 2.97537 41.699Z" fill="#4AB449" fill-opacity="0.5"/>
<path d="M9.62161 41.699C10.2585 41.699 10.7748 41.1827 10.7748 40.5458C10.7748 39.9089 10.2585 39.3926 9.62161 39.3926C8.98474 39.3926 8.46844 39.9089 8.46844 40.5458C8.46844 41.1827 8.98474 41.699 9.62161 41.699Z" fill="#4AB449" fill-opacity="0.5"/>
</svg>
