<svg width="40" height="19" viewBox="0 0 40 19" fill="none" xmlns="http://www.w3.org/2000/svg">
<path d="M0.974212 15.4464C0.796164 15.381 -0.675075 14.8114 0.374471 12.897C0.983582 11.7857 4.37587 7.57406 8.15236 4.28691C10.467 2.27913 12.9409 0.607545 15.04 0.187313C20.4939 -0.90529 38.8235 3.13828 38.8797 3.14761C38.9172 3.15695 38.9453 3.16629 38.9734 3.18497C39.0765 3.25034 39.4045 3.47446 39.8168 4.03477C40.3416 4.73516 39.5731 9.98339 39.5638 9.99273C39.5544 10.0861 39.4888 10.1608 39.4045 10.1888L38.1581 10.6464C38.0269 10.6931 37.8864 10.6277 37.8395 10.5063C37.8208 10.4597 37.8208 10.413 37.8301 10.3756C37.8301 10.3663 37.9613 9.69389 38.0082 9.48845L36.7619 9.82463C36.7431 10.1795 36.64 10.9359 36.1621 11.2628C36.1434 11.2721 36.1246 11.2908 36.1059 11.2908L25.9853 14.6246C25.8541 14.662 25.7135 14.5966 25.676 14.4659C25.6479 14.3725 25.6667 14.2791 25.7323 14.2231C25.7978 14.1297 26.1539 13.6534 26.1539 13.3359C26.1539 13.0931 26.1071 12.6168 26.0321 12.262C25.9946 12.1032 26.0977 11.9912 26.0415 11.9912C25.8822 11.9912 21.8433 12.9157 21.0374 13.1024C20.8312 13.7375 19.8192 16.3429 17.4015 17.2487C14.7308 18.248 5.06932 18.939 5.0412 18.939C4.90064 18.9483 4.77882 18.8456 4.76944 18.7055C4.76944 18.6495 4.78819 18.6028 4.8163 18.5561C4.8163 18.5561 5.87522 16.9686 5.18177 16.6978C4.91938 16.6511 2.57664 16.2402 0.974212 15.4464ZM0.805535 13.1305C0.0183751 14.5873 1.05855 14.9515 1.14289 14.9795C1.15226 14.9888 1.171 14.9888 1.18037 14.9982C2.7828 15.8013 5.20988 16.2028 5.28485 16.2122C5.30359 16.2215 5.32233 16.2215 5.3317 16.2215C6.28754 16.567 5.80962 17.7624 5.47227 18.416C7.43079 18.2573 14.9744 17.6316 17.2328 16.7818C19.6599 15.8853 20.5407 13.0651 20.6063 12.841C20.6251 12.7476 20.7001 12.6729 20.7938 12.6542C20.8031 12.6449 25.7885 11.4962 26.0415 11.4962C26.2758 11.4962 26.4257 11.7764 26.51 12.1593C26.5944 12.5421 26.6506 13.0651 26.6506 13.3359C26.6506 13.532 26.5756 13.7468 26.4819 13.9429L35.9091 10.8425C36.2746 10.553 36.2746 9.7686 36.2746 9.65654C36.2652 9.53514 36.3402 9.42308 36.4526 9.39506L38.055 8.96549C38.1113 8.94682 38.1675 8.95615 38.2237 8.97483C38.4486 9.08689 38.4299 9.63786 38.383 10.0394L39.0952 9.77794C39.217 8.94682 39.7793 4.80986 39.4232 4.32426C39.0671 3.848 38.8141 3.67057 38.7391 3.62388C37.9239 3.43711 20.3721 -0.382335 15.1337 0.672914C13.1377 1.07447 10.7387 2.69937 8.48034 4.66045C4.74133 7.91024 1.40528 12.0472 0.805535 13.1305Z" fill="#4AB449" fill-opacity="0.8"/>
<path d="M0.543027 15.2127C0.421205 15.1567 0.355608 15.0166 0.402463 14.8952C0.458689 14.7645 0.599253 14.6991 0.730446 14.7551C0.739817 14.7551 3.60733 15.9411 7.22451 15.1941C8.61141 14.9139 11.6757 13.0462 14.9462 10.805C20.1658 7.22832 25.8727 2.72717 26.1913 2.20422C26.2569 2.10149 26.285 2.00811 26.2944 1.9334C26.3038 1.84002 26.285 1.75597 26.2382 1.6906C26.1913 1.60655 26.0976 1.53185 25.9945 1.46648C25.7321 1.31706 25.3854 1.23301 25.0855 1.19566C24.9543 1.17698 24.8513 1.04625 24.87 0.915506C24.8887 0.784768 25.0106 0.682044 25.1511 0.700721C25.5072 0.747414 25.9289 0.859475 26.2475 1.04625C26.4162 1.14897 26.5568 1.27037 26.6599 1.41978C26.7629 1.58788 26.8098 1.77465 26.7817 1.99877C26.7629 2.13885 26.7161 2.28826 26.613 2.45636C26.285 3.01667 20.4938 7.60186 15.2273 11.2065C11.91 13.4851 8.78946 15.3808 7.32759 15.6797C3.56047 16.4547 0.552398 15.2127 0.543027 15.2127Z" fill="#4AB449" fill-opacity="0.8"/>
<path d="M5.68743 16.6696C5.67806 16.6883 5.66869 16.6976 5.65932 16.7163C5.58435 16.8283 5.43441 16.8563 5.32196 16.7816C5.16266 16.6696 5.13454 16.5482 5.23762 16.3988C5.27511 16.3521 5.32196 16.3241 5.36882 16.3054C5.54686 16.2307 5.85611 16.184 6.26843 16.1279C7.02747 16.0252 8.16136 15.8665 9.10782 15.5396C9.59511 15.3715 10.6447 14.9513 11.9847 14.419C15.3114 13.0929 20.4092 11.0571 23.0799 10.4035C26.8189 9.47894 39.5353 7.5272 39.5728 7.51786C39.7133 7.49918 39.8352 7.59257 39.8539 7.73264C39.8726 7.86338 39.7789 7.99412 39.6477 8.0128C39.6103 8.0128 26.9126 9.96454 23.2017 10.8797C20.5591 11.5334 15.4801 13.5505 12.1628 14.8766C10.8227 15.4089 9.77316 15.8291 9.26713 15.9972C8.27381 16.3427 7.11181 16.5108 6.33402 16.6135C5.99667 16.6602 5.78114 16.6509 5.68743 16.6696Z" fill="#4AB449" fill-opacity="0.8"/>
<path d="M7.58043 16.4269C7.44923 16.3895 7.36489 16.2588 7.40238 16.128C7.43986 15.9973 7.57105 15.9132 7.70225 15.9506C7.70225 15.9506 8.25513 16.0907 8.66745 16.5576C8.75179 16.651 8.80802 16.735 8.86424 16.8097C8.99544 16.9778 9.05166 17.0525 9.60455 17.0992C10.4386 17.1646 18.2914 16.1934 18.3102 16.1934C18.4507 16.1747 18.5725 16.2774 18.5913 16.4082C18.6007 16.5296 18.5257 16.6416 18.4132 16.679L15.3021 17.7436C15.1803 17.7903 15.0397 17.7156 14.9928 17.5848C14.946 17.4634 15.0116 17.3234 15.1428 17.2767L16.0611 16.9592C13.6528 17.2393 10.1387 17.6315 9.56707 17.5942C8.77991 17.5288 8.6862 17.3981 8.47067 17.0992C8.42381 17.0432 8.37696 16.9685 8.29262 16.8844C7.98338 16.5296 7.58043 16.4269 7.58043 16.4269ZM18.4132 16.679C18.4039 16.679 18.3851 16.679 18.3758 16.6883L18.4132 16.679Z" fill="#4AB449" fill-opacity="0.8"/>
<path d="M1.33015 11.9163C1.4426 11.8416 1.6019 11.8696 1.67687 11.9817C1.75184 12.0844 1.7331 12.2432 1.62065 12.3179C1.62065 12.3179 1.7331 12.2432 1.91115 12.3272C2.1829 12.4486 3.20434 12.5887 4.2164 12.6634C5.11601 12.7288 5.97814 12.7381 6.24052 12.6447C6.50291 12.542 6.82152 12.3646 7.14951 12.1498C7.55246 11.879 7.97415 11.5614 8.33962 11.2439C9.01432 10.6649 14.7306 4.4175 14.7493 4.39882C14.8337 4.2961 14.993 4.28676 15.0961 4.38015C15.1991 4.47353 15.2085 4.62295 15.1148 4.72567C15.0961 4.74435 9.36105 11.0105 8.65823 11.6175C8.27402 11.9443 7.84296 12.2805 7.43063 12.5607C7.06517 12.7941 6.70907 12.9996 6.4092 13.1116C6.08122 13.233 5.13475 13.2237 4.17892 13.1583C3.12 13.0743 2.0236 12.9249 1.70498 12.7661C0.758519 12.3272 1.33015 11.9163 1.33015 11.9163Z" fill="#4AB449" fill-opacity="0.8"/>
<path d="M9.02347 4.29613C8.89228 4.28679 8.78919 4.17473 8.79857 4.03465C8.80794 3.90391 8.92039 3.80119 9.06095 3.81053L15.9673 4.26811H15.9767C16.2578 4.27745 20.6434 4.40819 21.6461 3.08212L20.8215 1.74672C19.875 1.70003 14.0276 1.4012 12.8468 1.5226C12.7063 1.53193 12.5844 1.43855 12.5751 1.29847C12.5563 1.16773 12.6594 1.04633 12.8 1.02766C14.0838 0.896917 20.5966 1.24244 20.9621 1.26112C21.0464 1.26112 21.1307 1.29847 21.1776 1.37318L22.1522 2.95138H22.1428C22.1896 3.02609 22.199 3.11948 22.1522 3.20352C21.187 4.91247 16.2485 4.77239 15.958 4.76305C15.9486 4.76305 15.9392 4.76305 15.9392 4.76305L9.02347 4.29613Z" fill="#4AB449" fill-opacity="0.8"/>
<path d="M17.8982 1.3637C17.9919 1.27031 18.1512 1.27031 18.2449 1.37303C18.3387 1.46642 18.3293 1.62517 18.2356 1.71856L15.1994 4.57614C15.0963 4.66952 14.9464 4.66952 14.8527 4.5668C14.759 4.46407 14.759 4.31466 14.862 4.22127L17.8982 1.3637Z" fill="#4AB449" fill-opacity="0.8"/>
<path d="M7.74963 7.91012L8.65861 6.93892C8.71484 6.88289 8.7898 6.85488 8.86477 6.86421L11.573 6.93892C11.7042 6.94826 11.8166 7.06032 11.8166 7.19106C11.8072 7.24709 11.7885 7.29378 11.7604 7.33114C11.7604 7.33114 11.1607 8.15292 10.1954 8.33036C9.83935 8.39573 9.42703 8.4144 9.05219 8.4144C8.4056 8.4144 7.81523 8.30234 7.759 8.25565C7.66529 8.16226 7.66529 8.00351 7.74963 7.91012ZM8.94911 7.35915L8.42434 7.91946C8.59301 7.91946 8.80855 7.91946 9.05219 7.9288C9.39892 7.9288 9.78312 7.91012 10.1017 7.84475C10.4766 7.77939 10.7764 7.59262 10.992 7.41518L8.94911 7.35915Z" fill="#4AB449" fill-opacity="0.8"/>
<path d="M8.23685 7.2377L7.28102 8.24626C7.22479 8.30229 7.15919 8.33031 7.08423 8.32097C6.94366 8.32097 5.29438 8.29295 5.16318 7.87272C5.03199 7.45249 5.81915 6.81747 5.82852 6.81747C5.87537 6.78012 5.9316 6.76144 5.98783 6.76144C5.98783 6.76144 7.99321 6.81747 8.03069 6.81747C8.16189 6.79879 8.28371 6.89218 8.31182 7.02292C8.32119 7.10696 8.29308 7.18167 8.23685 7.2377ZM6.99052 7.82603L7.50592 7.29373C6.99052 7.2844 6.30644 7.26572 6.06279 7.25638C5.92223 7.37778 5.61299 7.6486 5.6411 7.7233C5.65984 7.79801 6.65316 7.82603 6.99052 7.82603Z" fill="#4AB449" fill-opacity="0.8"/>
<path d="M2.57658 11.0571C2.44538 11.0664 2.32356 10.9637 2.31419 10.833C2.30482 10.6929 2.4079 10.5715 2.54846 10.5622C2.55783 10.5622 6.32495 10.282 8.42405 11.1131C8.55524 11.1598 8.61147 11.2999 8.56461 11.4306C8.50839 11.552 8.36782 11.6174 8.246 11.5707C6.24999 10.7863 2.58595 11.0571 2.57658 11.0571Z" fill="#4AB449" fill-opacity="0.8"/>
<path d="M8.44254 11.7576C8.36757 11.6456 8.39568 11.4868 8.50813 11.4121C8.62058 11.3374 8.77052 11.3654 8.84549 11.4775C8.85486 11.4868 9.95126 13.0743 9.89503 14.2883C9.89503 14.4284 9.77321 14.5311 9.64202 14.5218C9.50145 14.5218 9.39837 14.4004 9.40774 14.2697C9.4546 13.2144 8.44254 11.7576 8.44254 11.7576Z" fill="#4AB449" fill-opacity="0.8"/>
<path d="M26.4724 2.57768C26.3318 2.559 26.2381 2.4376 26.2568 2.30686C26.2756 2.16679 26.3974 2.0734 26.538 2.09208L39.5074 3.80102C39.6479 3.8197 39.7416 3.9411 39.7229 4.07184C39.7041 4.21192 39.5823 4.3053 39.4418 4.28662L26.4724 2.57768Z" fill="#4AB449" fill-opacity="0.8"/>
<path d="M19.613 15.5957C19.4818 15.633 19.3412 15.5583 19.3037 15.4276C19.2662 15.2968 19.3412 15.1567 19.4724 15.1194L26.3226 13.1303C26.4444 13.0929 26.5849 13.1676 26.6224 13.2984C26.6599 13.4291 26.5849 13.5692 26.4537 13.6066L19.613 15.5957Z" fill="#4AB449" fill-opacity="0.8"/>
<path d="M36.6022 10.5809C36.4711 10.6182 36.3305 10.5435 36.293 10.4128C36.2555 10.2821 36.3399 10.142 36.4711 10.1046L38.0547 9.65638C38.1859 9.61902 38.3265 9.69373 38.364 9.82447C38.4015 9.95521 38.3265 10.0953 38.1953 10.1326L36.6022 10.5809Z" fill="#4AB449" fill-opacity="0.8"/>
<path d="M23.0801 14.5309L23.0707 14.559L23.0613 14.5683L23.052 14.6057L23.0426 14.6243C22.8833 15.0632 22.5553 15.4555 22.1617 15.7356C21.7588 16.0251 21.2715 16.2025 20.8029 16.2025C20.5124 16.2025 20.2594 16.1372 20.0533 16.0064C19.8284 15.8757 19.6597 15.6889 19.566 15.4461C19.5191 15.3247 19.5847 15.1846 19.7065 15.1286C19.7159 15.1286 19.7253 15.1286 19.7253 15.1286V15.1193L22.7708 14.2134C22.902 14.1761 23.0426 14.2508 23.0801 14.3815C23.0988 14.4282 23.0895 14.4843 23.0801 14.5309ZM21.8712 15.3341C22.068 15.2033 22.2367 15.0352 22.3679 14.8485L20.1845 15.5022C20.2219 15.5302 20.2594 15.5582 20.3063 15.5862C20.4375 15.6609 20.6062 15.7076 20.8029 15.7076C21.1684 15.7076 21.5526 15.5675 21.8712 15.3341Z" fill="#4AB449" fill-opacity="0.8"/>
<path d="M26.0881 13.5972L26.0788 13.6346H26.0694L26.06 13.6719V13.6813C25.9007 14.1295 25.5727 14.5217 25.1698 14.8112C24.7668 15.1007 24.2795 15.2781 23.811 15.2781C23.5205 15.2781 23.2675 15.2034 23.0613 15.082C22.8364 14.9513 22.6771 14.7552 22.5834 14.5217C22.5272 14.4003 22.5928 14.2509 22.7146 14.2042C22.724 14.2042 22.7333 14.1949 22.7427 14.1949L25.7789 13.2797C25.9101 13.2423 26.0507 13.3171 26.0881 13.4478C26.1069 13.5038 26.0975 13.5505 26.0881 13.5972ZM24.8793 14.4097C25.0761 14.2696 25.2448 14.1015 25.3759 13.9241L23.2019 14.5684C23.23 14.6058 23.2675 14.6338 23.3143 14.6618C23.4455 14.7365 23.6142 14.7832 23.811 14.7832C24.1765 14.7832 24.5607 14.6338 24.8793 14.4097Z" fill="#4AB449" fill-opacity="0.8"/>
<path d="M36.5461 10.5529C36.5648 10.5716 36.7335 10.5249 36.9584 10.4595C36.9959 10.5529 37.0802 10.6557 37.2114 10.637C37.4363 10.609 37.6612 10.4409 37.7456 10.2074C37.9424 10.142 38.0923 10.1047 38.0923 10.1327C38.0923 10.2167 38.0829 10.3101 38.0454 10.3942C37.9892 10.5809 37.8486 10.7397 37.6893 10.8518C37.53 10.9732 37.3332 11.0385 37.1365 11.0385C37.0521 11.0385 36.9771 11.0292 36.9116 11.0012H36.8928C36.7804 10.9545 36.696 10.8891 36.6304 10.7957C36.6304 10.7864 36.6211 10.7864 36.6211 10.7771L36.5461 10.5529ZM36.9584 10.4595C37.2021 10.3848 37.5113 10.2728 37.7456 10.2074C37.6612 10.4409 37.4363 10.609 37.2114 10.637C37.0802 10.6557 36.9959 10.5529 36.9584 10.4595ZM36.5273 10.4689C36.5273 10.3942 36.5461 10.3195 36.5742 10.2354V10.2261L36.5836 10.2074C36.6117 10.1234 36.6773 10.0767 36.7522 10.0486L37.7362 9.75916C37.858 9.7218 37.9798 9.78717 38.0267 9.89923L37.7737 9.99262L36.9116 10.3288L36.5273 10.4689Z" fill="#4AB449" fill-opacity="0.8"/>
<path d="M24.8701 10.226C24.7857 10.3381 24.6358 10.3661 24.5234 10.2914C24.4109 10.2167 24.3734 10.0673 24.4578 9.9552C24.4578 9.9552 24.6077 9.72174 24.6077 9.36688V4.5669V4.55756C24.6077 4.41748 24.6639 3.88519 25.4042 3.93188C26.1726 3.97857 26.0696 6.73343 26.0602 6.93887C26.0696 7.12564 26.182 9.54431 25.8915 10.0206C25.8259 10.142 25.6666 10.17 25.5542 10.1046C25.4323 10.0299 25.3949 9.8805 25.4698 9.7591C25.6947 9.40423 25.5635 6.95755 25.5635 6.94821C25.5635 6.93887 25.5635 6.92953 25.5635 6.9202C25.5635 6.9202 25.6854 4.43616 25.3667 4.41748C25.1231 4.40814 25.1044 4.52021 25.1044 4.54822C25.1044 4.55756 25.1044 4.55756 25.1044 4.5669V9.36688C25.1044 9.87116 24.8701 10.226 24.8701 10.226Z" fill="#4AB449" fill-opacity="0.8"/>
<path d="M27.1283 5.28597L27.6999 5.25795H27.7093H27.7186C27.8311 5.25795 27.9248 5.30464 27.9998 5.37001C28.0747 5.44472 28.1216 5.54744 28.131 5.65951V5.66885V7.73265C28.131 7.84471 28.0841 7.94744 28.0091 8.03148C27.9342 8.10619 27.8311 8.15288 27.7186 8.16222L27.147 8.1809H27.1376C27.0252 8.1809 26.9221 8.14354 26.8471 8.06884C26.7722 8.00347 26.7253 7.90074 26.7253 7.78868V7.77934V7.77H26.7159V5.71554C26.7159 5.59414 26.7628 5.49141 26.8378 5.41671C26.9127 5.342 27.0158 5.28597 27.1283 5.28597ZM27.6343 5.75289L27.2126 5.77157V7.68596L27.6343 7.66728V5.75289Z" fill="#4AB449" fill-opacity="0.8"/>
<path d="M28.5715 5.24859L29.1056 5.22991H29.115H29.1244C29.2368 5.22991 29.3305 5.2766 29.4055 5.34197C29.4805 5.40734 29.5273 5.51007 29.5273 5.61279V5.63147V7.61123C29.5273 7.72329 29.4805 7.81667 29.4149 7.90072C29.3399 7.97543 29.2368 8.02212 29.1244 8.02212L28.5902 8.05013H28.5808H28.5715C28.459 8.05013 28.3653 8.00344 28.2903 7.93807C28.2154 7.86336 28.1685 7.76998 28.1685 7.65792V7.64858L28.5715 5.24859ZM29.0306 5.72485L28.6652 5.74353V7.55519L29.0306 7.53652V5.72485ZM28.1685 7.64858V5.66882C28.1685 5.55676 28.206 5.45403 28.281 5.37933C28.3559 5.30462 28.459 5.25793 28.5715 5.24859L28.1685 7.64858Z" fill="#4AB449" fill-opacity="0.8"/>
<path d="M32.6198 5.16446L33.0696 5.14579H33.0884C33.1915 5.14579 33.2852 5.18314 33.3508 5.24851C33.4164 5.31388 33.4632 5.40726 33.4726 5.50065V5.51933V7.23761C33.4726 7.34033 33.4257 7.43372 33.3601 7.50842C33.2945 7.57379 33.2008 7.62049 33.0978 7.62982H33.0884L32.6386 7.6485H32.6198C32.5261 7.6485 32.4324 7.61115 32.3574 7.53644C32.2918 7.47107 32.245 7.38702 32.245 7.2843V7.26562V5.55668C32.245 5.45396 32.2825 5.35123 32.3481 5.28586C32.423 5.21116 32.5168 5.16446 32.6198 5.16446ZM32.9759 5.64073L32.7417 5.65006V7.14422L32.9759 7.13488V5.64073Z" fill="#4AB449" fill-opacity="0.8"/>
<path d="M33.8754 5.13656L34.2971 5.11789H34.3158C34.4095 5.11789 34.5032 5.15524 34.5688 5.22061C34.6344 5.28598 34.6813 5.37002 34.6813 5.47275V5.49143H34.6907V7.11632C34.6907 7.21905 34.6438 7.31243 34.5782 7.3778C34.5126 7.44317 34.4189 7.48986 34.3158 7.4992L33.8941 7.51788H33.8754C33.7817 7.51788 33.688 7.48052 33.6224 7.41515C33.5568 7.34978 33.5099 7.2564 33.5099 7.16301V7.14434H33.5005V5.51944C33.5005 5.41672 33.5474 5.32333 33.613 5.24862C33.6786 5.18326 33.7723 5.13656 33.8754 5.13656ZM34.194 5.61283L33.9972 5.62216V7.0136L34.194 7.00426V5.61283Z" fill="#4AB449" fill-opacity="0.8"/>
<path d="M35.0748 5.10852L35.4778 5.08984H35.4965C35.5902 5.08984 35.6746 5.1272 35.7402 5.19257C35.8058 5.25794 35.8526 5.34198 35.8526 5.43537V5.45404V6.9949C35.8526 7.08828 35.8152 7.18166 35.7496 7.24703L35.7402 7.25637C35.6746 7.32174 35.5902 7.3591 35.4965 7.36843L35.103 7.38711H35.0842C34.9905 7.38711 34.8968 7.34976 34.8312 7.28439C34.7656 7.21902 34.7281 7.13497 34.7188 7.03225V7.02291V5.48206C34.7188 5.37934 34.7656 5.28595 34.8218 5.22058C34.8874 5.15521 34.9811 5.10852 35.0748 5.10852ZM35.3653 5.58478L35.2154 5.59412V6.88283H35.3653V5.58478Z" fill="#4AB449" fill-opacity="0.8"/>
<path d="M36.2373 5.08048L36.6122 5.0618H36.6309C36.7246 5.0618 36.809 5.09916 36.8746 5.16453C36.9402 5.22056 36.9777 5.3046 36.9777 5.40733V5.41666H36.987V6.87347C36.987 6.96685 36.9402 7.06024 36.8839 7.12561C36.8183 7.19098 36.734 7.22833 36.6309 7.23767L36.2655 7.25635H36.2467C36.153 7.25635 36.0687 7.21899 36.0031 7.15362C35.9375 7.09759 35.9 7.01355 35.8906 6.91082V6.90148V5.44468C35.8906 5.3513 35.9281 5.25791 35.9937 5.19254H36.0031V5.1832C36.0687 5.12717 36.153 5.08982 36.2373 5.08048ZM36.4904 5.56608H36.3873V6.75207H36.4904V5.56608Z" fill="#4AB449" fill-opacity="0.8"/>
<path d="M37.3613 5.06192L37.6986 5.04325H37.7173C37.8017 5.04325 37.886 5.0806 37.9516 5.13663C38.0172 5.19266 38.0547 5.27671 38.0641 5.37009V5.38877V6.75219C38.0641 6.84558 38.0266 6.93896 37.961 6.99499L37.9516 7.00433C37.8954 7.0697 37.8111 7.10705 37.7173 7.10705L37.38 7.12573H37.3613C37.2675 7.12573 37.1832 7.08838 37.127 7.03235L37.1176 7.02301C37.0614 6.95764 37.0239 6.88293 37.0145 6.78954V6.78021V5.40745C37.0145 5.31406 37.052 5.23002 37.1176 5.16465C37.1738 5.09928 37.2582 5.06192 37.3613 5.06192ZM37.5674 5.53819L37.5112 5.54753V6.62145H37.5674V5.53819Z" fill="#4AB449" fill-opacity="0.8"/>
<path d="M38.43 5.03388L38.7392 5.01521H38.758C38.8423 5.01521 38.9267 5.05256 38.9923 5.10859L39.0016 5.12727C39.0579 5.1833 39.0953 5.25801 39.0953 5.34205V5.36073V6.6401C39.0953 6.72415 39.0579 6.8082 39.0016 6.87357C38.936 6.93893 38.8517 6.97629 38.7674 6.98563L38.4487 6.99497H38.4394C38.3457 6.99497 38.2613 6.95761 38.2051 6.90158C38.1395 6.84555 38.102 6.7615 38.102 6.67746L38.0927 6.65878V5.37941C38.0927 5.28602 38.1301 5.20198 38.1957 5.13661C38.252 5.08058 38.3363 5.03388 38.43 5.03388ZM38.5987 5.51948H38.5893V6.50003H38.5987V5.51948Z" fill="#4AB449" fill-opacity="0.8"/>
<path d="M31.3171 5.20185L31.795 5.18318H31.8138C31.9168 5.18318 32.0106 5.22987 32.0855 5.29524C32.1605 5.36061 32.198 5.45399 32.2073 5.56605V5.57539V7.36838C32.2073 7.48044 32.1605 7.57383 32.0949 7.64854C32.0199 7.72324 31.9262 7.76994 31.8138 7.77927L31.3358 7.79795H31.3265C31.214 7.79795 31.1203 7.7606 31.0453 7.68589C30.9797 7.62052 30.9329 7.52714 30.9235 7.41507V7.40574V5.61275C30.9235 5.50068 30.9704 5.4073 31.0453 5.33259C31.1109 5.25788 31.214 5.21119 31.3171 5.20185ZM31.6919 5.70613L31.4389 5.71547V7.275L31.6919 7.26566V5.70613Z" fill="#4AB449" fill-opacity="0.8"/>
<path d="M29.9771 5.24859L30.4644 5.22991H30.4831C30.5862 5.22991 30.6893 5.26726 30.7642 5.34197C30.8392 5.40734 30.8861 5.51007 30.8861 5.62213V5.63147H30.8954V7.48982C30.8954 7.60189 30.8486 7.70461 30.7736 7.77932C30.6986 7.85403 30.5956 7.90072 30.4831 7.91006L29.9958 7.92873H29.9771C29.8646 7.92873 29.7709 7.89138 29.696 7.81667C29.621 7.74196 29.5741 7.64858 29.5648 7.53652V7.51784V5.66882C29.5648 5.55676 29.6116 5.45403 29.6866 5.37933C29.7522 5.30462 29.8553 5.24859 29.9677 5.24859H29.9771ZM30.3519 5.7622L30.0989 5.77154V7.39644L30.3519 7.3871V5.7622Z" fill="#4AB449" fill-opacity="0.8"/>
</svg>
