<svg width="25" height="25" viewBox="0 0 25 25" fill="none" xmlns="http://www.w3.org/2000/svg">
<g clip-path="url(#clip0_1_312)">
<path d="M21.875 25H3.125C1.4 25 0 23.6 0 21.875V3.125C0 1.4 1.4 0 3.125 0H21.875C23.6 0 25 1.4 25 3.125V21.875C25 23.6 23.6 25 21.875 25Z" fill="white"/>
<path d="M9.59998 18.8499C15.4937 18.8499 18.7187 13.9624 18.7187 9.73115C18.7187 9.59365 18.7187 9.45615 18.7125 9.31865C19.3375 8.86865 19.8812 8.2999 20.3125 7.65615C19.7375 7.9124 19.1187 8.08115 18.4687 8.1624C19.1312 7.76865 19.6375 7.1374 19.8812 6.3874C19.2625 6.75615 18.575 7.01865 17.8437 7.1624C17.2562 6.5374 16.425 6.1499 15.5062 6.1499C13.7375 6.1499 12.3 7.5874 12.3 9.35615C12.3 9.60615 12.3312 9.8499 12.3812 10.0874C9.71873 9.95615 7.35623 8.6749 5.77498 6.7374C5.49998 7.2124 5.34373 7.7624 5.34373 8.3499C5.34373 9.4624 5.91248 10.4437 6.76873 11.0187C6.24373 10.9999 5.74998 10.8562 5.31873 10.6187V10.6624C5.31873 12.2124 6.42498 13.5124 7.88748 13.8062C7.61873 13.8812 7.33748 13.9187 7.04373 13.9187C6.83748 13.9187 6.63748 13.8999 6.44373 13.8624C6.84998 15.1374 8.03748 16.0624 9.43748 16.0874C8.33748 16.9499 6.95623 17.4624 5.45623 17.4624C5.19998 17.4624 4.94373 17.4499 4.69373 17.4187C6.10623 18.3187 7.79373 18.8499 9.59998 18.8499Z" fill="#26ADE2"/>
</g>
<defs>
<clipPath id="clip0_1_312">
<rect width="25" height="25" fill="white"/>
</clipPath>
</defs>
</svg>
