<svg width="45" height="45" viewBox="0 0 45 45" fill="none" xmlns="http://www.w3.org/2000/svg">
<g opacity="0.4">
<rect width="45" height="44.2507" fill="white"/>
<path d="M38.4047 11.8313L27.8578 8.62308C27.2107 8.43006 26.5123 8.49612 25.9145 8.80688C25.3167 9.11764 24.8679 9.64797 24.6656 10.2825L24.2719 11.527H11.4328C11.0985 11.5269 10.7675 11.5916 10.4586 11.7173C10.1498 11.8431 9.86915 12.0274 9.63277 12.2599C9.39639 12.4923 9.20891 12.7683 9.08104 13.072C8.95316 13.3757 8.8874 13.7012 8.88751 14.03V35.4086C8.88676 36.0739 9.15424 36.7124 9.63134 37.1841C10.1084 37.6559 10.7562 37.9224 11.4328 37.9253H16.7485C16.8988 38.2289 17.1113 38.4986 17.3727 38.7175C17.634 38.9364 17.9386 39.0999 18.2672 39.1976L29.0813 42.4749C29.3266 42.5522 29.5831 42.5895 29.8406 42.5855C30.2617 42.5862 30.6767 42.4866 31.05 42.2951C31.3478 42.1374 31.6106 41.9228 31.8231 41.664C32.0356 41.4052 32.1935 41.1073 32.2875 40.7878L34.4813 33.5556V33.5279L40.1063 14.9426C40.295 14.3082 40.2223 13.6262 39.9039 13.044C39.5855 12.4619 39.047 12.0262 38.4047 11.8313ZM11.4328 36.9712C11.2241 36.9714 11.0174 36.9311 10.8245 36.8527C10.6316 36.7743 10.4563 36.6592 10.3087 36.5141C10.1611 36.3689 10.0441 36.1966 9.96431 36.0069C9.88452 35.8173 9.84356 35.614 9.84376 35.4087V14.0301C9.84572 13.6163 10.0138 13.2199 10.3114 12.9273C10.6089 12.6347 11.012 12.4694 11.4328 12.4675H26.5781C26.9961 12.4674 27.3976 12.6277 27.6971 12.9145C27.9965 13.2012 28.1703 13.5916 28.1813 14.0024L28.2516 17.9988L28.2656 18.9945L28.2938 20.5571L28.35 24.0833L28.3641 25.2725L28.3781 26.2129L28.4766 31.7166V31.8272L28.5328 35.3811C28.5371 35.5899 28.4987 35.7974 28.4198 35.9914C28.3409 36.1853 28.2232 36.3616 28.0737 36.51C27.9241 36.6583 27.7458 36.7756 27.5493 36.8548C27.3528 36.9341 27.1421 36.9737 26.9297 36.9713L11.4328 36.9712ZM31.3735 40.5251C31.2445 40.9269 30.9623 41.2639 30.586 41.4654C30.3563 41.5847 30.1003 41.6464 29.8406 41.6452C29.6835 41.6424 29.5275 41.6192 29.3766 41.576L18.5485 38.2987C18.3096 38.227 18.0923 38.0988 17.9156 37.9253H26.9297C27.2704 37.9237 27.6074 37.8556 27.9212 37.7251C28.235 37.5945 28.5194 37.4041 28.7578 37.1648C28.9953 36.9282 29.1824 36.6472 29.308 36.3385C29.4335 36.0298 29.4951 35.6995 29.4891 35.3671L29.4469 32.4217L33.4266 33.7077L31.3735 40.5251ZM31.4438 18.7039L35.1 23.53L34.9735 24.014L31.275 21.1239C31.2116 21.0768 31.138 21.0448 31.0599 21.0304C30.9819 21.016 30.9014 21.0196 30.825 21.0409C30.7514 21.0699 30.6854 21.1148 30.6319 21.1722C30.5783 21.2297 30.5386 21.2982 30.5156 21.3728L29.7703 24.0555C29.7375 24.1657 29.7476 24.284 29.7985 24.3874L30.7828 26.4616L30.7406 26.5584L29.3344 25.5905L29.2641 21.4834L29.3766 21.0686C29.4 20.9927 29.4033 20.9122 29.386 20.8347C29.3688 20.7572 29.3317 20.6854 29.2781 20.6261L29.25 20.5984L29.2078 18.6071L29.9531 18.3029C30.0206 18.2767 30.081 18.2357 30.1297 18.183C30.1785 18.1302 30.2143 18.0672 30.2344 17.9987L30.9235 15.5373C31.1766 14.5969 31.6547 14.3895 31.8656 14.3342C32.0203 14.4863 32.3156 14.9011 32.0625 15.8415L31.3735 18.3029C31.3529 18.3706 31.3485 18.442 31.3607 18.5115C31.3729 18.5811 31.4014 18.647 31.4438 18.7039ZM39.1781 14.6661L33.7078 32.795L29.4188 31.4399L29.3485 26.7382L30.7547 27.72C30.8381 27.7744 30.9359 27.8033 31.036 27.803C31.089 27.8062 31.1421 27.7967 31.1906 27.7753C31.2629 27.7507 31.3278 27.7087 31.3793 27.6532C31.4309 27.5976 31.4675 27.5303 31.4859 27.4573L31.7531 26.5446C31.7789 26.4338 31.7691 26.3178 31.725 26.2127L30.7406 24.1385L31.2469 22.3131L34.9453 25.1894C35.0087 25.2365 35.0823 25.2685 35.1604 25.2829C35.2385 25.2973 35.3189 25.2937 35.3953 25.2724C35.4695 25.2484 35.5365 25.2068 35.5904 25.1514C35.6444 25.0959 35.6836 25.0283 35.7047 24.9544L36.0844 23.5577C36.105 23.4901 36.1093 23.4186 36.0971 23.3491C36.0849 23.2795 36.0565 23.2136 36.0141 23.1567L32.3578 18.3306L32.9766 16.0904C33.5391 14.0991 32.2594 13.4492 32.2031 13.4353C32.1528 13.4027 32.0946 13.3837 32.0344 13.38C31.9641 13.38 30.5578 13.2832 29.9953 15.2883L29.3766 17.5285L29.1938 17.5977L29.1375 13.9885C29.121 13.3312 28.8443 12.7062 28.3663 12.2465C27.8883 11.7868 27.2467 11.5286 26.5781 11.527H25.2703L25.5797 10.559C25.6418 10.3609 25.7435 10.177 25.8787 10.0179C26.0139 9.85885 26.18 9.72784 26.3672 9.63255C26.5981 9.5165 26.8532 9.45495 27.1125 9.45278C27.2696 9.45558 27.4257 9.47883 27.5766 9.52192L38.1235 12.7301C38.5234 12.8507 38.8587 13.1219 39.0563 13.4846C39.2538 13.8472 39.2976 14.2718 39.1781 14.6661Z" fill="#19BA18"/>
<path d="M26.9297 33.431C26.9926 33.4315 27.0551 33.4197 27.1133 33.3963C27.1716 33.3729 27.2245 33.3382 27.269 33.2945C27.3135 33.2507 27.3487 33.1987 27.3725 33.1414C27.3964 33.0841 27.4084 33.0227 27.4078 32.9608C27.4065 32.8365 27.3558 32.7177 27.2664 32.6298C27.177 32.5419 27.0561 32.4919 26.9297 32.4907H11.4328C11.3064 32.492 11.1856 32.5419 11.0962 32.6298C11.0068 32.7177 10.956 32.8365 10.9547 32.9608C10.9542 33.0227 10.9662 33.0841 10.99 33.1414C11.0138 33.1987 11.049 33.2507 11.0935 33.2945C11.138 33.3382 11.191 33.3729 11.2492 33.3963C11.3075 33.4197 11.3699 33.4315 11.4328 33.431H26.9297Z" fill="#19BA18"/>
<path d="M13.1344 25.9777C13.7217 26.9302 14.5352 27.7285 15.5051 28.3041C16.475 28.8797 17.5723 29.2155 18.7031 29.2826C18.7822 29.2941 18.8622 29.2987 18.9422 29.2965C18.9793 29.3034 19.0175 29.3034 19.0547 29.2965C19.0958 29.3079 19.1386 29.3125 19.1812 29.3103C19.2656 29.3103 19.3641 29.2965 19.4484 29.2965C19.533 29.2988 19.6177 29.2941 19.7016 29.2826C20.8247 29.2076 21.913 28.8682 22.8748 28.2931C23.8366 27.7179 24.6437 26.9238 25.2281 25.9777C25.2639 25.9471 25.2926 25.9093 25.3125 25.867C25.3125 25.8532 25.3266 25.8532 25.3266 25.8394C25.3687 25.7702 25.3969 25.7149 25.4391 25.6458C25.4391 25.6319 25.4531 25.6319 25.4531 25.6181C25.6316 25.2898 25.7821 24.9476 25.9031 24.5948C26.1634 23.8613 26.2965 23.09 26.2969 22.3131C26.2969 22.1334 26.2828 21.9536 26.2687 21.7738C26.2484 21.4625 26.2061 21.1529 26.1422 20.8473C26.0745 20.551 25.9852 20.2599 25.875 19.9762C25.7735 19.6824 25.6513 19.3959 25.5094 19.1188C25.4474 18.9944 25.3769 18.8743 25.2984 18.7593V18.7454C25.2784 18.7109 25.2548 18.6785 25.2281 18.6486C24.8021 17.9556 24.2546 17.3423 23.6109 16.8371C23.3514 16.6292 23.0737 16.4441 22.7812 16.284C21.1606 15.3437 19.2266 15.0747 17.4044 15.5363C15.5822 15.9979 14.021 17.1522 13.0641 18.7454V18.7593C12.4106 19.8333 12.0656 21.0615 12.0656 22.3131C12.0656 23.5647 12.4106 24.7929 13.0641 25.867C13.079 25.9085 13.103 25.9463 13.1344 25.9777ZM13.6969 19.589C14.2634 19.8348 14.8585 20.0112 15.4687 20.1144C15.3487 20.8414 15.2876 21.5766 15.2859 22.3131C15.287 23.0451 15.3481 23.7758 15.4687 24.498C14.8622 24.6161 14.2687 24.7921 13.6969 25.0235C13.2623 24.1814 13.0359 23.2505 13.0359 22.3062C13.0359 21.362 13.2623 20.431 13.6969 19.589ZM16.2422 22.3131C16.2371 21.6314 16.2983 20.9507 16.425 20.2804C17.1793 20.3917 17.9404 20.4518 18.7031 20.4601V24.1661C17.9405 24.1762 17.1795 24.2362 16.425 24.3459C16.2983 23.6756 16.2371 22.995 16.2422 22.3131ZM21.9516 20.2804C22.0372 20.7188 22.0936 21.1622 22.1203 21.6079C22.1203 21.843 22.1344 22.0781 22.1344 22.3131C22.1395 22.9903 22.0783 23.6664 21.9516 24.3321C21.7406 24.3044 21.5156 24.2768 21.2906 24.2491C20.9672 24.2215 20.6437 24.1938 20.3062 24.18C20.0953 24.1661 19.8703 24.1661 19.6594 24.1661V20.4601C20.2922 20.4463 20.925 20.4048 21.5156 20.3357C21.6618 20.3249 21.8074 20.3065 21.9516 20.2804ZM18.7031 25.1065V28.2732C18.1499 27.9562 17.6766 27.5205 17.3187 26.9985C16.9607 26.4765 16.7273 25.8817 16.6359 25.2586C17.3209 25.164 18.0114 25.1132 18.7031 25.1065ZM20.0812 28.0657C19.9498 28.1553 19.8082 28.2295 19.6594 28.287V25.1065H20.0109C20.3484 25.1203 20.6719 25.148 20.9953 25.1756C21.2484 25.2033 21.5016 25.2309 21.7406 25.2586C21.5262 26.3519 20.9413 27.3415 20.0812 28.0657ZM19.6594 19.506V16.3393C20.215 16.6583 20.6905 17.0962 21.0508 17.6204C21.4111 18.1446 21.6468 18.7418 21.7406 19.3677C21.0505 19.457 20.3554 19.5031 19.6594 19.506ZM18.7031 16.3531V19.506C18.0117 19.5036 17.3213 19.4574 16.6359 19.3677C16.7274 18.7446 16.9608 18.1498 17.3188 17.6277C17.6767 17.1057 18.1499 16.6702 18.7031 16.3531ZM14.1891 25.8394C14.6733 25.6569 15.1718 25.5135 15.6797 25.4107C15.9022 26.3059 16.2881 27.154 16.8187 27.9136C15.7651 27.4727 14.8553 26.7552 14.1891 25.8394ZM21.5719 27.8998C22.0895 27.1448 22.4701 26.3073 22.6969 25.4245C23.2008 25.5186 23.695 25.6574 24.1734 25.8394C23.5166 26.7494 22.6161 27.4628 21.5719 27.8998ZM25.1859 20.9718C25.2612 21.2805 25.3083 21.5952 25.3266 21.9121C25.3383 22.0455 25.343 22.1793 25.3406 22.3131C25.3405 23.2552 25.114 24.1839 24.6797 25.0235C24.1085 24.7902 23.5149 24.6141 22.9078 24.498C23.0286 23.7758 23.0897 23.0451 23.0906 22.3131C23.0906 22.161 23.0906 22.0089 23.0766 21.8568V21.5249C23.0344 21.0408 22.9781 20.5707 22.9078 20.1144C23.1328 20.073 23.3437 20.0315 23.5547 19.9762C23.5584 19.9762 23.562 19.9747 23.5646 19.9721C23.5673 19.9695 23.5687 19.966 23.5687 19.9623C23.9511 19.8757 24.3234 19.7506 24.6797 19.589C24.8078 19.8336 24.916 20.088 25.0031 20.3495C25.0806 20.5518 25.1418 20.76 25.1859 20.9718ZM22.4859 17.2105C22.7752 17.3897 23.0481 17.5933 23.3016 17.8189C23.6285 18.1081 23.921 18.4329 24.1734 18.7869C23.7559 18.9533 23.3225 19.0784 22.8797 19.1603C22.8234 19.1741 22.7531 19.1879 22.6969 19.2018C22.5813 18.7729 22.4356 18.3524 22.2609 17.9434C22.072 17.5211 21.8412 17.1181 21.5719 16.7403C21.8919 16.8663 22.1981 17.0239 22.4859 17.2105ZM16.8187 16.7265C16.2899 17.4753 15.9083 18.3148 15.6937 19.2018C15.1853 19.1076 14.6864 18.9687 14.2031 18.7869C14.8573 17.8688 15.7649 17.1541 16.8187 16.7265Z" fill="#19BA18"/>
</g>
</svg>
