<svg width="25" height="25" viewBox="0 0 25 25" fill="none" xmlns="http://www.w3.org/2000/svg">
<g clip-path="url(#clip0_1_329)">
<path fill-rule="evenodd" clip-rule="evenodd" d="M21.9456 0C23.6314 0 25 1.36865 25 3.05439V21.9456C25 23.6313 23.6313 25 21.9456 25H3.05439C1.36865 25 0 23.6313 0 21.9456V3.05439C0 1.36865 1.3686 0 3.05439 0L21.9456 0ZM19.0807 6.2355C17.4283 4.58115 15.2308 3.66968 12.8894 3.6687C8.06523 3.6687 4.13892 7.59473 4.13701 12.4204C4.13638 13.963 4.5394 15.4686 5.30532 16.7959L4.06367 21.3313L8.70337 20.1143C9.98174 20.8115 11.4211 21.1791 12.8859 21.1795H12.8895C17.7132 21.1795 21.6398 17.2531 21.6418 12.4274C21.6427 10.0888 20.7331 7.8898 19.0807 6.2355ZM12.8895 19.7014H12.8865C11.5812 19.7009 10.3009 19.3502 9.18398 18.6874L8.91831 18.5297L6.16509 19.252L6.89995 16.5676L6.727 16.2923C5.99883 15.1341 5.61416 13.7955 5.61475 12.4209C5.61636 8.41006 8.87974 5.14692 12.8924 5.14692C14.8354 5.14761 16.6619 5.90527 18.0354 7.28032C19.4088 8.65532 20.1647 10.4831 20.164 12.4268C20.1624 16.438 16.8991 19.7014 12.8895 19.7014ZM16.8797 14.2531C16.661 14.1437 15.5858 13.6147 15.3854 13.5417C15.185 13.4687 15.0392 13.4322 14.8934 13.6511C14.7476 13.87 14.3285 14.3626 14.2009 14.5086C14.0733 14.6545 13.9458 14.6729 13.7271 14.5633C13.5084 14.4539 12.8038 14.2229 11.9685 13.4778C11.3184 12.8979 10.8794 12.1818 10.7519 11.9629C10.6243 11.7439 10.7382 11.6256 10.8477 11.5166C10.9461 11.4186 11.0665 11.2611 11.1758 11.1334C11.2852 11.0058 11.3216 10.9145 11.3945 10.7686C11.4674 10.6226 11.431 10.495 11.3762 10.3855C11.3216 10.2761 10.8842 9.19956 10.702 8.76167C10.5245 8.33525 10.3442 8.39302 10.2099 8.38628C10.0825 8.37993 9.93657 8.37856 9.79082 8.37856C9.64502 8.37856 9.40806 8.4333 9.20762 8.6522C9.00718 8.87114 8.44224 9.40024 8.44224 10.4766C8.44224 11.5531 9.22583 12.5929 9.33516 12.7389C9.44453 12.8849 10.8772 15.0937 13.071 16.041C13.5928 16.2664 14.0001 16.4009 14.3178 16.5017C14.8416 16.6682 15.3184 16.6447 15.6952 16.5883C16.1153 16.5256 16.9891 16.0594 17.1713 15.5485C17.3535 15.0376 17.3535 14.5998 17.2988 14.5086C17.2442 14.4173 17.0984 14.3626 16.8797 14.2531Z" fill="white"/>
</g>
<defs>
<clipPath id="clip0_1_329">
<rect width="25" height="25" fill="white"/>
</clipPath>
</defs>
</svg>
